<?xml version="1.0" standalone="no"?>
<!DOCTYPE svg PUBLIC "-//W3C//DTD SVG 20010904//EN"
 "http://www.w3.org/TR/2001/REC-SVG-20010904/DTD/svg10.dtd">
<svg version="1.0" xmlns="http://www.w3.org/2000/svg"
 width="2134.000000pt" height="2134.000000pt" viewBox="0 0 2134.000000 2134.000000"
 preserveAspectRatio="xMidYMid meet">
<metadata>
Created by potrace 1.14, written by Peter Selinger 2001-2017
</metadata>
<g transform="translate(0.000000,2134.000000) scale(0.100000,-0.100000)"
fill="#000000" stroke="none">
<path d="M10261 21309 c-2009 -78 -3960 -725 -5611 -1862 -1693 -1166 -3015
-2791 -3810 -4687 -790 -1886 -1019 -4023 -645 -6048 387 -2097 1384 -4012
2880 -5531 557 -565 1086 -1003 1725 -1426 1526 -1011 3247 -1601 5077 -1740
176 -14 331 -16 905 -12 737 4 802 8 1273 67 2049 260 4006 1132 5583 2488
978 841 1794 1848 2413 2977 130 238 351 692 452 930 383 904 635 1829 762
2798 66 510 70 587 70 1382 0 797 -3 855 -66 1355 -251 2004 -1069 3888 -2369
5460 -287 346 -741 821 -1060 1107 -1196 1073 -2553 1840 -4065 2298 -1126
341 -2314 491 -3514 444z m5859 -4529 c0 -19 7 -20 125 -20 l125 0 0 -25 c0
-25 1 -25 85 -25 78 0 85 -2 85 -20 0 -18 7 -20 85 -20 78 0 85 -2 85 -20 0
-18 7 -20 60 -20 53 0 60 -2 60 -20 0 -18 7 -20 65 -20 58 0 65 -2 65 -20 0
-17 7 -20 40 -20 33 0 40 -3 40 -20 0 -17 7 -20 40 -20 36 0 40 -2 40 -25 0
-23 4 -25 45 -25 38 0 45 -3 45 -20 0 -17 7 -20 40 -20 33 0 40 -3 40 -20 0
-17 7 -20 40 -20 33 0 40 -3 40 -20 0 -15 7 -20 25 -20 18 0 25 -5 25 -20 0
-17 7 -20 40 -20 33 0 40 -3 40 -20 0 -13 7 -20 20 -20 15 0 20 -7 20 -25 0
-18 5 -25 20 -25 13 0 20 -7 20 -20 0 -17 7 -20 45 -20 38 0 45 -3 45 -20 0
-13 7 -20 20 -20 13 0 20 -7 20 -20 0 -13 7 -20 20 -20 13 0 20 -7 20 -20 0
-13 7 -20 20 -20 13 0 20 -7 20 -20 0 -13 7 -20 20 -20 15 0 20 -7 20 -25 0
-18 5 -25 20 -25 13 0 20 -7 20 -20 0 -15 7 -20 25 -20 18 0 25 -5 25 -20 0
-13 7 -20 20 -20 13 0 20 -7 20 -20 0 -13 7 -20 20 -20 13 0 20 -7 20 -20 0
-13 7 -20 20 -20 13 0 20 -7 20 -20 0 -13 7 -20 20 -20 17 0 20 -7 20 -45 0
-38 3 -45 20 -45 13 0 20 -7 20 -20 0 -15 7 -20 25 -20 18 0 25 -5 25 -20 0
-13 7 -20 20 -20 17 0 20 -7 20 -40 0 -33 3 -40 20 -40 15 0 20 -7 20 -25 0
-18 5 -25 20 -25 17 0 20 -7 20 -40 0 -33 3 -40 20 -40 17 0 20 -7 20 -40 0
-33 3 -40 20 -40 13 0 20 -7 20 -20 0 -15 7 -20 28 -21 l27 -2 -27 -4 c-38 -6
-40 -43 -3 -43 18 0 25 -5 25 -19 0 -11 5 -21 10 -23 31 -10 66 -419 56 -658
-30 -763 -249 -1526 -675 -2355 -303 -588 -672 -1127 -1147 -1673 -149 -171
-571 -596 -759 -763 -1309 -1167 -2758 -1883 -4415 -2183 -781 -142 -1686
-181 -2505 -110 -424 36 -719 74 -1115 141 -146 24 -282 47 -302 50 l-37 5
-611 -1223 c-337 -673 -643 -1281 -682 -1351 -179 -322 -298 -419 -547 -448
-51 -6 -481 -10 -1053 -10 -961 0 -968 0 -968 20 0 17 -7 20 -45 20 -38 0 -45
3 -45 20 0 13 -7 20 -20 20 -13 0 -20 7 -20 20 0 13 -7 20 -20 20 -15 0 -20 7
-20 25 0 18 -5 25 -20 25 -17 0 -20 7 -20 40 0 33 -3 40 -20 40 -17 0 -20 7
-20 40 0 36 -2 40 -25 40 -24 0 -25 2 -25 65 0 58 -2 65 -20 65 -19 0 -20 7
-20 145 0 138 1 145 20 145 19 0 20 7 20 105 l0 105 25 0 c25 0 25 1 25 80 0
73 2 80 20 80 17 0 20 7 20 45 0 38 3 45 20 45 18 0 20 7 20 60 0 53 2 60 20
60 17 0 20 7 20 45 0 38 3 45 20 45 17 0 20 7 20 40 0 33 3 40 20 40 17 0 20
7 20 40 0 36 3 40 25 40 24 0 25 2 25 65 0 58 2 65 20 65 17 0 20 7 20 40 0
33 3 40 20 40 17 0 20 7 20 40 0 33 3 40 20 40 17 0 20 7 20 45 0 38 3 45 20
45 17 0 20 7 20 40 0 33 3 40 20 40 17 0 20 7 20 40 0 36 3 40 25 40 23 0 25
4 25 45 0 38 3 45 20 45 17 0 20 7 20 40 0 33 3 40 20 40 17 0 20 7 20 40 0
33 3 40 20 40 17 0 20 7 20 45 0 38 3 45 20 45 17 0 20 7 20 40 0 33 3 40 20
40 17 0 20 7 20 40 0 36 3 40 25 40 23 0 25 4 25 45 0 38 3 45 20 45 17 0 20
7 20 40 0 33 3 40 20 40 17 0 20 7 20 40 0 33 3 40 20 40 17 0 20 7 20 45 0
38 3 45 20 45 17 0 20 7 20 40 0 33 3 40 20 40 17 0 20 7 20 40 0 36 3 40 25
40 23 0 25 4 25 45 0 38 3 45 20 45 17 0 20 7 20 40 0 33 3 40 20 40 17 0 20
7 20 40 0 33 3 40 20 40 17 0 20 7 20 45 0 38 3 45 20 45 17 0 20 7 20 40 0
33 3 40 20 40 17 0 20 7 20 40 0 36 3 40 25 40 23 0 25 4 25 45 0 38 3 45 20
45 17 0 20 7 20 40 0 33 3 40 20 40 17 0 20 7 20 40 0 33 3 40 20 40 17 0 20
7 20 45 0 38 3 45 20 45 17 0 20 7 20 40 0 33 3 40 20 40 17 0 20 7 20 40 0
36 3 40 25 40 20 0 25 5 25 25 0 18 5 25 20 25 17 0 20 7 20 40 0 33 3 40 20
40 17 0 20 7 20 40 0 33 3 40 20 40 17 0 20 7 20 45 0 38 3 45 20 45 17 0 20
7 20 40 0 33 3 40 20 40 17 0 20 7 20 40 0 36 3 40 25 40 23 0 25 4 25 45 0
38 3 45 20 45 17 0 20 7 20 40 0 33 3 40 20 40 17 0 20 7 20 40 0 33 3 40 20
40 17 0 20 7 20 40 0 33 3 40 20 40 15 0 20 7 20 25 0 18 5 25 20 25 17 0 20
7 20 40 0 36 3 40 25 40 23 0 25 4 25 40 0 33 3 40 20 40 17 0 20 7 20 45 0
38 3 45 20 45 17 0 20 7 20 40 0 33 3 40 20 40 17 0 20 7 20 40 0 33 3 40 20
40 17 0 20 7 20 45 0 38 3 45 20 45 17 0 20 7 20 40 0 36 3 40 25 40 23 0 25
4 25 40 0 33 3 40 20 40 17 0 20 7 20 40 0 33 3 40 20 40 15 0 20 7 20 25 0
18 5 25 20 25 17 0 20 7 20 40 0 33 3 40 20 40 17 0 20 7 20 45 0 38 3 45 20
45 17 0 20 7 20 40 0 36 3 40 25 40 23 0 25 4 25 40 0 33 3 40 20 40 17 0 20
7 20 45 0 38 3 45 20 45 17 0 20 7 20 40 0 33 3 40 20 40 17 0 20 7 20 40 0
33 3 40 20 40 17 0 20 7 20 45 0 38 3 45 20 45 13 0 20 7 20 20 0 15 7 20 25
20 23 0 25 4 25 40 0 33 3 40 20 40 17 0 20 7 20 40 0 33 3 40 20 40 17 0 20
7 20 45 0 38 3 45 20 45 17 0 20 7 20 40 0 33 3 40 20 40 17 0 20 7 20 40 0
33 3 40 20 40 17 0 20 7 20 45 0 41 2 45 25 45 23 0 25 4 25 40 0 33 3 40 20
40 17 0 20 7 20 40 0 33 3 40 20 40 17 0 20 7 20 45 0 38 3 45 20 45 17 0 20
7 20 40 0 33 3 40 20 40 17 0 20 7 20 40 0 33 3 40 20 40 15 0 20 7 20 25 0
20 5 25 25 25 23 0 25 4 25 40 0 33 3 40 20 40 17 0 20 7 20 40 0 33 3 40 20
40 17 0 20 7 20 45 0 38 3 45 20 45 17 0 20 7 20 40 0 33 3 40 20 40 17 0 20
7 20 40 0 33 3 40 20 40 17 0 20 7 20 45 0 41 2 45 25 45 23 0 25 4 25 40 0
33 3 40 20 40 17 0 20 7 20 40 0 33 3 40 20 40 17 0 20 7 20 45 0 38 3 45 20
45 17 0 20 7 20 40 0 33 3 40 20 40 17 0 20 7 20 40 0 33 3 40 20 40 17 0 20
7 20 45 0 41 2 45 25 45 23 0 25 4 25 40 0 33 3 40 20 40 17 0 20 7 20 40 0
33 3 40 20 40 17 0 20 7 20 45 0 38 3 45 20 45 17 0 20 7 20 40 0 33 3 40 20
40 17 0 20 7 20 40 0 33 3 40 20 40 17 0 20 7 20 45 0 41 2 45 25 45 23 0 25
4 25 40 0 33 3 40 20 40 17 0 20 7 20 40 0 33 3 40 20 40 17 0 20 7 20 45 0
38 3 45 20 45 17 0 20 7 20 40 0 33 3 40 20 40 17 0 20 7 20 40 0 33 3 40 20
40 17 0 20 7 20 45 0 41 2 45 25 45 23 0 25 4 25 40 0 33 3 40 20 40 17 0 20
7 20 40 0 33 3 40 20 40 17 0 20 7 20 45 0 38 3 45 20 45 17 0 20 7 20 40 0
33 3 40 20 40 17 0 20 7 20 40 0 33 3 40 20 40 17 0 20 7 20 45 0 41 2 45 25
45 23 0 25 4 25 40 0 33 3 40 20 40 17 0 20 7 20 40 0 33 3 40 20 40 17 0 20
7 20 40 0 33 3 40 20 40 17 0 20 7 20 45 0 38 3 45 20 45 13 0 20 7 20 20 0
13 7 20 20 20 17 0 20 7 20 40 0 36 3 40 25 40 23 0 25 4 25 45 0 38 3 45 20
45 17 0 20 7 20 40 0 33 3 40 20 40 17 0 20 7 20 40 0 33 3 40 20 40 17 0 20
7 20 45 0 38 3 45 20 45 17 0 20 7 20 40 0 33 3 40 20 40 17 0 20 7 20 40 0
36 3 40 25 40 20 0 25 5 25 25 0 18 5 25 20 25 17 0 20 7 20 40 0 33 3 40 20
40 17 0 20 7 20 40 0 33 3 40 20 40 13 0 20 7 20 20 0 13 7 20 20 20 17 0 20
7 20 45 0 38 3 45 20 45 13 0 20 7 20 20 0 15 7 20 25 20 23 0 25 4 25 40 0
33 3 40 20 40 13 0 20 7 20 20 0 13 7 20 20 20 15 0 20 7 20 25 0 18 5 25 20
25 17 0 20 7 20 40 0 33 3 40 20 40 13 0 20 7 20 20 0 13 7 20 20 20 13 0 20
7 20 20 0 15 7 20 25 20 18 0 25 5 25 20 0 17 7 20 40 20 36 0 40 3 40 25 0
18 5 25 20 25 13 0 20 7 20 20 0 13 7 20 20 20 13 0 20 7 20 20 0 17 7 20 45
20 38 0 45 3 45 20 0 17 7 20 40 20 33 0 40 3 40 20 0 17 7 20 40 20 33 0 40
3 40 20 0 17 7 20 45 20 37 0 45 3 45 19 0 21 35 31 111 31 42 0 49 3 49 20 0
19 7 20 105 20 98 0 105 1 105 20 0 20 7 20 335 20 328 0 335 0 335 20 0 13 7
20 20 20 13 0 20 -7 20 -20 0 -20 7 -20 335 -20 328 0 335 0 335 -20 0 -18 7
-20 80 -20 73 0 80 -2 80 -20 0 -18 7 -20 54 -20 81 0 116 -9 116 -31 0 -15 8
-19 40 -19 33 0 40 -3 40 -20 0 -17 7 -20 45 -20 38 0 45 -3 45 -20 0 -16 7
-20 35 -20 l35 0 -26 -72 c-15 -40 -111 -250 -215 -466 -104 -216 -189 -395
-189 -398 0 -2 63 -4 141 -4 l141 0 71 58 c244 198 604 438 868 580 93 50 98
52 177 52 75 0 82 2 82 20 0 18 7 20 65 20 58 0 65 2 65 20 0 18 7 20 60 20
57 0 60 1 60 25 0 24 2 25 65 25 58 0 65 2 65 20 0 18 7 20 60 20 53 0 60 2
60 20 0 17 7 20 40 20 33 0 40 3 40 20 0 18 7 20 65 20 58 0 65 2 65 20 0 18
7 20 60 20 53 0 60 2 60 20 0 18 7 20 65 20 63 0 65 1 65 25 0 24 3 25 60 25
53 0 60 2 60 20 0 18 7 20 85 20 78 0 85 2 85 20 0 18 7 20 85 20 78 0 85 2
85 20 0 18 7 20 80 20 73 0 80 2 80 20 0 19 7 20 105 20 98 0 105 1 105 20 0
19 7 20 125 20 l125 0 0 25 0 25 125 0 c118 0 125 1 125 20 0 20 7 20 520 20
513 0 520 0 520 -20z"/>
<path d="M13490 14404 c-533 -61 -996 -227 -1540 -551 -1047 -624 -2109 -1736
-2692 -2818 -162 -301 -700 -1356 -694 -1362 8 -9 255 -57 501 -98 230 -38
429 -60 633 -71 120 -6 132 -9 132 -25 0 -18 19 -19 500 -19 l500 0 0 25 0 25
125 0 c118 0 125 1 125 20 0 19 7 20 105 20 98 0 105 1 105 20 0 18 7 20 65
20 58 0 65 2 65 20 0 18 7 20 80 20 73 0 80 2 80 20 0 18 7 20 65 20 58 0 65
2 65 20 0 18 7 20 60 20 53 0 60 2 60 19 0 12 -8 21 -22 24 -13 2 7 5 45 6 60
1 67 3 67 21 0 17 7 20 40 20 33 0 40 3 40 20 0 18 7 20 60 20 53 0 60 2 60
20 0 17 7 20 45 20 38 0 45 3 45 20 0 17 7 20 40 20 33 0 40 3 40 20 0 17 7
20 40 20 36 0 40 3 40 25 0 20 5 25 25 25 18 0 25 5 25 20 0 17 7 20 40 20 33
0 40 3 40 20 0 17 7 20 40 20 33 0 40 3 40 20 0 17 7 20 45 20 38 0 45 3 45
20 0 13 7 20 20 20 13 0 20 7 20 20 0 17 7 20 40 20 36 0 40 3 40 25 0 18 5
25 20 25 13 0 20 7 20 20 0 17 7 20 45 20 38 0 45 3 45 20 0 13 7 20 20 20 13
0 20 7 20 20 0 13 7 20 20 20 13 0 20 7 20 20 0 17 7 20 40 20 33 0 40 3 40
20 0 13 7 20 20 20 15 0 20 7 20 25 0 20 5 25 25 25 18 0 25 5 25 20 0 13 7
20 20 20 13 0 20 7 20 20 0 13 7 20 20 20 13 0 20 7 20 20 0 17 7 20 40 20 33
0 40 3 40 20 0 13 7 20 20 20 13 0 20 7 20 20 0 15 7 20 25 20 20 0 25 5 25
25 0 18 5 25 20 25 13 0 20 7 20 20 0 13 7 20 20 20 13 0 20 7 20 20 0 13 7
20 20 20 13 0 20 7 20 20 0 13 7 20 20 20 13 0 20 7 20 20 0 13 7 20 20 20 13
0 20 7 20 20 0 15 7 20 25 20 20 0 25 5 25 25 0 18 5 25 20 25 27 0 25 28 -2
33 l-23 4 23 2 c15 1 22 7 22 21 0 13 7 20 20 20 13 0 20 7 20 20 0 13 7 20
20 20 13 0 20 7 20 20 0 13 7 20 20 20 13 0 20 7 20 20 0 13 7 20 20 20 17 0
20 7 20 45 0 41 2 45 25 45 18 0 25 5 25 20 0 13 7 20 20 20 13 0 20 7 20 20
0 13 7 20 20 20 17 0 20 7 20 40 0 33 3 40 20 40 15 0 20 7 20 25 0 18 5 25
20 25 13 0 20 7 20 20 0 13 7 20 20 20 17 0 20 7 20 40 0 36 3 40 25 40 18 0
25 5 25 20 0 13 7 20 20 20 17 0 20 7 20 45 0 38 3 45 20 45 13 0 20 7 20 20
0 13 7 20 20 20 17 0 20 7 20 40 0 33 3 40 20 40 17 0 20 7 20 40 0 33 3 40
20 40 15 0 20 7 20 25 0 20 5 25 25 25 23 0 25 4 25 40 0 33 3 40 20 40 17 0
20 7 20 40 0 33 3 40 20 40 17 0 20 7 20 45 0 38 3 45 20 45 17 0 20 7 20 40
0 33 3 40 20 40 18 0 20 7 20 60 0 53 2 60 20 60 18 0 20 7 20 65 0 63 1 65
25 65 24 0 25 3 25 60 0 53 2 60 20 60 18 0 20 7 20 85 0 78 2 85 20 85 19 0
20 7 20 145 0 138 1 145 20 145 19 0 20 7 20 125 0 104 -2 125 -15 125 -12 0
-15 13 -15 58 0 80 -25 235 -50 312 -103 309 -348 514 -705 590 -77 16 -144
22 -290 25 -104 2 -206 1 -225 -1z"/>
</g>
</svg>
