<?xml version="1.0" encoding="UTF-8"?>
<svg id="Layer_1" data-name="Layer 1" xmlns="http://www.w3.org/2000/svg" xmlns:xlink="http://www.w3.org/1999/xlink" viewBox="0 0 841.89 595.28">
  <defs>
    <style>
      .cls-1 {
        clip-path: url(#clippath);
      }

      .cls-2, .cls-3, .cls-4, .cls-5, .cls-6, .cls-7, .cls-8, .cls-9 {
        fill: none;
      }

      .cls-2, .cls-10 {
        stroke-width: 0px;
      }

      .cls-11 {
        clip-path: url(#clippath-1);
      }

      .cls-3 {
        stroke: #12151f;
      }

      .cls-3, .cls-4, .cls-5, .cls-6, .cls-7, .cls-8, .cls-9 {
        stroke-miterlimit: 10;
      }

      .cls-10 {
        fill: #11111b;
      }

      .cls-4 {
        filter: url(#outer-glow-2);
      }

      .cls-4, .cls-5, .cls-6, .cls-7, .cls-8, .cls-9 {
        opacity: .1;
        stroke: #7f849c;
        stroke-width: 3px;
      }

      .cls-5 {
        filter: url(#outer-glow-5);
      }

      .cls-6 {
        filter: url(#outer-glow-1);
      }

      .cls-7 {
        filter: url(#outer-glow-3);
      }

      .cls-8 {
        filter: url(#outer-glow-4);
      }

      .cls-9 {
        filter: url(#outer-glow-6);
      }
    </style>
    <clipPath id="clippath">
      <rect class="cls-2" x="122.95" y="-122.84" width="595.28" height="841.89" transform="translate(122.48 718.68) rotate(-90)"/>
    </clipPath>
    <clipPath id="clippath-1">
      <rect class="cls-2" x="122.94" y="-123.16" width="595.28" height="841.89" transform="translate(122.79 718.35) rotate(-90)"/>
    </clipPath>
    <filter id="outer-glow-1" filterUnits="userSpaceOnUse">
      <feOffset dx="0" dy="0"/>
      <feGaussianBlur result="blur" stdDeviation="5"/>
      <feFlood flood-color="#7f849c" flood-opacity="1"/>
      <feComposite in2="blur" operator="in"/>
      <feComposite in="SourceGraphic"/>
    </filter>
    <filter id="outer-glow-2" filterUnits="userSpaceOnUse">
      <feOffset dx="0" dy="0"/>
      <feGaussianBlur result="blur-2" stdDeviation="5"/>
      <feFlood flood-color="#7f849c" flood-opacity="1"/>
      <feComposite in2="blur-2" operator="in"/>
      <feComposite in="SourceGraphic"/>
    </filter>
    <filter id="outer-glow-3" filterUnits="userSpaceOnUse">
      <feOffset dx="0" dy="0"/>
      <feGaussianBlur result="blur-3" stdDeviation="5"/>
      <feFlood flood-color="#7f849c" flood-opacity="1"/>
      <feComposite in2="blur-3" operator="in"/>
      <feComposite in="SourceGraphic"/>
    </filter>
    <filter id="outer-glow-4" filterUnits="userSpaceOnUse">
      <feOffset dx="0" dy="0"/>
      <feGaussianBlur result="blur-4" stdDeviation="5"/>
      <feFlood flood-color="#7f849c" flood-opacity="1"/>
      <feComposite in2="blur-4" operator="in"/>
      <feComposite in="SourceGraphic"/>
    </filter>
    <filter id="outer-glow-5" filterUnits="userSpaceOnUse">
      <feOffset dx="0" dy="0"/>
      <feGaussianBlur result="blur-5" stdDeviation="5"/>
      <feFlood flood-color="#7f849c" flood-opacity="1"/>
      <feComposite in2="blur-5" operator="in"/>
      <feComposite in="SourceGraphic"/>
    </filter>
    <filter id="outer-glow-6" filterUnits="userSpaceOnUse">
      <feOffset dx="0" dy="0"/>
      <feGaussianBlur result="blur-6" stdDeviation="5"/>
      <feFlood flood-color="#7f849c" flood-opacity="1"/>
      <feComposite in2="blur-6" operator="in"/>
      <feComposite in="SourceGraphic"/>
    </filter>
  </defs>
  <rect class="cls-10" x="122.95" y="-122.84" width="595.28" height="841.89" transform="translate(122.48 718.68) rotate(-90)"/>
  <g class="cls-1">
    <g>
      <rect class="cls-3" x="245.79" y="-4.29" width="606.26" height="606.26"/>
      <line class="cls-3" x1="262.63" y1="601.97" x2="262.63" y2="-4.29"/>
      <line class="cls-3" x1="279.47" y1="601.97" x2="279.47" y2="-4.29"/>
      <line class="cls-3" x1="296.32" y1="601.97" x2="296.32" y2="-4.29"/>
      <line class="cls-3" x1="313.16" y1="601.97" x2="313.16" y2="-4.29"/>
      <line class="cls-3" x1="330" y1="601.97" x2="330" y2="-4.29"/>
      <line class="cls-3" x1="346.84" y1="601.97" x2="346.84" y2="-4.29"/>
      <line class="cls-3" x1="363.68" y1="601.97" x2="363.68" y2="-4.29"/>
      <line class="cls-3" x1="380.52" y1="601.97" x2="380.52" y2="-4.29"/>
      <line class="cls-3" x1="397.36" y1="601.97" x2="397.36" y2="-4.29"/>
      <line class="cls-3" x1="414.2" y1="601.97" x2="414.2" y2="-4.29"/>
      <line class="cls-3" x1="431.04" y1="601.97" x2="431.04" y2="-4.29"/>
      <line class="cls-3" x1="447.88" y1="601.97" x2="447.88" y2="-4.29"/>
      <line class="cls-3" x1="464.72" y1="601.97" x2="464.72" y2="-4.29"/>
      <line class="cls-3" x1="481.56" y1="601.97" x2="481.56" y2="-4.29"/>
      <line class="cls-3" x1="498.4" y1="601.97" x2="498.4" y2="-4.29"/>
      <line class="cls-3" x1="515.24" y1="601.97" x2="515.24" y2="-4.29"/>
      <line class="cls-3" x1="532.08" y1="601.97" x2="532.08" y2="-4.29"/>
      <line class="cls-3" x1="548.92" y1="601.97" x2="548.92" y2="-4.29"/>
      <line class="cls-3" x1="565.76" y1="601.97" x2="565.76" y2="-4.29"/>
      <line class="cls-3" x1="582.6" y1="601.97" x2="582.6" y2="-4.29"/>
      <line class="cls-3" x1="599.44" y1="601.97" x2="599.44" y2="-4.29"/>
      <line class="cls-3" x1="616.28" y1="601.97" x2="616.28" y2="-4.29"/>
      <line class="cls-3" x1="633.12" y1="601.97" x2="633.12" y2="-4.29"/>
      <line class="cls-3" x1="649.96" y1="601.97" x2="649.96" y2="-4.29"/>
      <line class="cls-3" x1="666.81" y1="601.97" x2="666.81" y2="-4.29"/>
      <line class="cls-3" x1="683.65" y1="601.97" x2="683.65" y2="-4.29"/>
      <line class="cls-3" x1="700.49" y1="601.97" x2="700.49" y2="-4.29"/>
      <line class="cls-3" x1="717.33" y1="601.97" x2="717.33" y2="-4.29"/>
      <line class="cls-3" x1="734.17" y1="601.97" x2="734.17" y2="-4.29"/>
      <line class="cls-3" x1="751.01" y1="601.97" x2="751.01" y2="-4.29"/>
      <line class="cls-3" x1="767.85" y1="601.97" x2="767.85" y2="-4.29"/>
      <line class="cls-3" x1="784.69" y1="601.97" x2="784.69" y2="-4.29"/>
      <line class="cls-3" x1="801.53" y1="601.97" x2="801.53" y2="-4.29"/>
      <line class="cls-3" x1="818.37" y1="601.97" x2="818.37" y2="-4.29"/>
      <line class="cls-3" x1="835.21" y1="601.97" x2="835.21" y2="-4.29"/>
      <line class="cls-3" x1="852.05" y1="12.55" x2="245.79" y2="12.55"/>
      <line class="cls-3" x1="852.05" y1="29.39" x2="245.79" y2="29.39"/>
      <line class="cls-3" x1="852.05" y1="46.23" x2="245.79" y2="46.23"/>
      <line class="cls-3" x1="852.05" y1="63.07" x2="245.79" y2="63.07"/>
      <line class="cls-3" x1="852.05" y1="79.91" x2="245.79" y2="79.91"/>
      <line class="cls-3" x1="852.05" y1="96.75" x2="245.79" y2="96.75"/>
      <line class="cls-3" x1="852.05" y1="113.59" x2="245.79" y2="113.59"/>
      <line class="cls-3" x1="852.05" y1="130.43" x2="245.79" y2="130.43"/>
      <line class="cls-3" x1="852.05" y1="147.27" x2="245.79" y2="147.27"/>
      <line class="cls-3" x1="852.05" y1="164.11" x2="245.79" y2="164.11"/>
      <line class="cls-3" x1="852.05" y1="180.95" x2="245.79" y2="180.95"/>
      <line class="cls-3" x1="852.05" y1="197.79" x2="245.79" y2="197.79"/>
      <line class="cls-3" x1="852.05" y1="214.63" x2="245.79" y2="214.63"/>
      <line class="cls-3" x1="852.05" y1="231.48" x2="245.79" y2="231.48"/>
      <line class="cls-3" x1="852.05" y1="248.32" x2="245.79" y2="248.32"/>
      <line class="cls-3" x1="852.05" y1="265.16" x2="245.79" y2="265.16"/>
      <line class="cls-3" x1="852.05" y1="282" x2="245.79" y2="282"/>
      <line class="cls-3" x1="852.05" y1="298.84" x2="245.79" y2="298.84"/>
      <line class="cls-3" x1="852.05" y1="315.68" x2="245.79" y2="315.68"/>
      <line class="cls-3" x1="852.05" y1="332.52" x2="245.79" y2="332.52"/>
      <line class="cls-3" x1="852.05" y1="349.36" x2="245.79" y2="349.36"/>
      <line class="cls-3" x1="852.05" y1="366.2" x2="245.79" y2="366.2"/>
      <line class="cls-3" x1="852.05" y1="383.04" x2="245.79" y2="383.04"/>
      <line class="cls-3" x1="852.05" y1="399.88" x2="245.79" y2="399.88"/>
      <line class="cls-3" x1="852.05" y1="416.72" x2="245.79" y2="416.72"/>
      <line class="cls-3" x1="852.05" y1="433.56" x2="245.79" y2="433.56"/>
      <line class="cls-3" x1="852.05" y1="450.4" x2="245.79" y2="450.4"/>
      <line class="cls-3" x1="852.05" y1="467.24" x2="245.79" y2="467.24"/>
      <line class="cls-3" x1="852.05" y1="484.08" x2="245.79" y2="484.08"/>
      <line class="cls-3" x1="852.05" y1="500.92" x2="245.79" y2="500.92"/>
      <line class="cls-3" x1="852.05" y1="517.76" x2="245.79" y2="517.76"/>
      <line class="cls-3" x1="852.05" y1="534.6" x2="245.79" y2="534.6"/>
      <line class="cls-3" x1="852.05" y1="551.44" x2="245.79" y2="551.44"/>
      <line class="cls-3" x1="852.05" y1="568.28" x2="245.79" y2="568.28"/>
      <line class="cls-3" x1="852.05" y1="585.13" x2="245.79" y2="585.13"/>
    </g>
    <g>
      <rect class="cls-3" x="-360.46" y="-4.29" width="606.26" height="606.26"/>
      <line class="cls-3" x1="10.03" y1="601.97" x2="10.03" y2="-4.29"/>
      <line class="cls-3" x1="26.87" y1="601.97" x2="26.87" y2="-4.29"/>
      <line class="cls-3" x1="43.71" y1="601.97" x2="43.71" y2="-4.29"/>
      <line class="cls-3" x1="60.55" y1="601.97" x2="60.55" y2="-4.29"/>
      <line class="cls-3" x1="77.39" y1="601.97" x2="77.39" y2="-4.29"/>
      <line class="cls-3" x1="94.23" y1="601.97" x2="94.23" y2="-4.29"/>
      <line class="cls-3" x1="111.07" y1="601.97" x2="111.07" y2="-4.29"/>
      <line class="cls-3" x1="127.91" y1="601.97" x2="127.91" y2="-4.29"/>
      <line class="cls-3" x1="144.75" y1="601.97" x2="144.75" y2="-4.29"/>
      <line class="cls-3" x1="161.59" y1="601.97" x2="161.59" y2="-4.29"/>
      <line class="cls-3" x1="178.43" y1="601.97" x2="178.43" y2="-4.29"/>
      <line class="cls-3" x1="195.27" y1="601.97" x2="195.27" y2="-4.29"/>
      <line class="cls-3" x1="212.11" y1="601.97" x2="212.11" y2="-4.29"/>
      <line class="cls-3" x1="228.95" y1="601.97" x2="228.95" y2="-4.29"/>
      <line class="cls-3" x1="245.79" y1="12.55" x2="-360.46" y2="12.55"/>
      <line class="cls-3" x1="245.79" y1="29.39" x2="-360.46" y2="29.39"/>
      <line class="cls-3" x1="245.79" y1="46.23" x2="-360.46" y2="46.23"/>
      <line class="cls-3" x1="245.79" y1="63.07" x2="-360.46" y2="63.07"/>
      <line class="cls-3" x1="245.79" y1="79.91" x2="-360.46" y2="79.91"/>
      <line class="cls-3" x1="245.79" y1="96.75" x2="-360.46" y2="96.75"/>
      <line class="cls-3" x1="245.79" y1="113.59" x2="-360.46" y2="113.59"/>
      <line class="cls-3" x1="245.79" y1="130.43" x2="-360.46" y2="130.43"/>
      <line class="cls-3" x1="245.79" y1="147.27" x2="-360.46" y2="147.27"/>
      <line class="cls-3" x1="245.79" y1="164.11" x2="-360.46" y2="164.11"/>
      <line class="cls-3" x1="245.79" y1="180.95" x2="-360.46" y2="180.95"/>
      <line class="cls-3" x1="245.79" y1="197.79" x2="-360.46" y2="197.79"/>
      <line class="cls-3" x1="245.79" y1="214.63" x2="-360.46" y2="214.63"/>
      <line class="cls-3" x1="245.79" y1="231.48" x2="-360.46" y2="231.48"/>
      <line class="cls-3" x1="245.79" y1="248.32" x2="-360.46" y2="248.32"/>
      <line class="cls-3" x1="245.79" y1="265.16" x2="-360.46" y2="265.16"/>
      <line class="cls-3" x1="245.79" y1="282" x2="-360.46" y2="282"/>
      <line class="cls-3" x1="245.79" y1="298.84" x2="-360.46" y2="298.84"/>
      <line class="cls-3" x1="245.79" y1="315.68" x2="-360.46" y2="315.68"/>
      <line class="cls-3" x1="245.79" y1="332.52" x2="-360.46" y2="332.52"/>
      <line class="cls-3" x1="245.79" y1="349.36" x2="-360.46" y2="349.36"/>
      <line class="cls-3" x1="245.79" y1="366.2" x2="-360.46" y2="366.2"/>
      <line class="cls-3" x1="245.79" y1="383.04" x2="-360.46" y2="383.04"/>
      <line class="cls-3" x1="245.79" y1="399.88" x2="-360.46" y2="399.88"/>
      <line class="cls-3" x1="245.79" y1="416.72" x2="-360.46" y2="416.72"/>
      <line class="cls-3" x1="245.79" y1="433.56" x2="-360.46" y2="433.56"/>
      <line class="cls-3" x1="245.79" y1="450.4" x2="-360.46" y2="450.4"/>
      <line class="cls-3" x1="245.79" y1="467.24" x2="-360.46" y2="467.24"/>
      <line class="cls-3" x1="245.79" y1="484.08" x2="-360.46" y2="484.08"/>
      <line class="cls-3" x1="245.79" y1="500.92" x2="-360.46" y2="500.92"/>
      <line class="cls-3" x1="245.79" y1="517.76" x2="-360.46" y2="517.76"/>
      <line class="cls-3" x1="245.79" y1="534.6" x2="-360.46" y2="534.6"/>
      <line class="cls-3" x1="245.79" y1="551.44" x2="-360.46" y2="551.44"/>
      <line class="cls-3" x1="245.79" y1="568.28" x2="-360.46" y2="568.28"/>
      <line class="cls-3" x1="245.79" y1="585.13" x2="-360.46" y2="585.13"/>
    </g>
  </g>
  <g class="cls-11">
    <path class="cls-6" d="M875.54,377.71c-19.58-25.08-52.59-60.82-103-88-28.19-15.2-41.94-17-55.22-24.88-35.15-20.84-66.91-84.17-39.78-280.12"/>
    <path class="cls-4" d="M885.57,357.15c-19.58-25.08-52.59-60.82-103-88-28.19-15.2-41.94-17-55.22-24.88-35.15-20.84-66.91-84.17-39.78-280.12"/>
    <path class="cls-7" d="M279.65-1.84c-77.1-8.9-168.04-6.93-208.67,47.36-27.45,36.68-16.43,76.53-24.67,151.56-6.29,57.25-23.79,135.05-72.87,225.74"/>
    <path class="cls-8" d="M260.02-1.84C182.92-10.74,91.98-8.77,51.35,45.52c-27.45,36.68-16.43,76.53-24.67,151.56-6.29,57.25-23.79,135.05-72.87,225.74"/>
    <path class="cls-5" d="M406.54,629.04c-46.03-16.67-99.86-32.56-160.75-44.24-103.11-19.78-194.3-21.29-265.91-16.84"/>
    <path class="cls-9" d="M380.3,615.72c-46.03-16.67-99.86-32.56-160.75-44.24-103.11-19.78-194.3-21.29-265.91-16.84"/>
  </g>
</svg>