<svg id="visual" viewBox="0 0 1920 1080" width="1920" height="1080" xmlns="http://www.w3.org/2000/svg" xmlns:xlink="http://www.w3.org/1999/xlink" version="1.1"><rect x="0" y="0" width="1920" height="1080" fill="#11111B"></rect><defs><linearGradient id="grad1_0" x1="43.8%" y1="0%" x2="100%" y2="100%"><stop offset="14.444444444444446%" stop-color="#eb9f2d" stop-opacity="1"></stop><stop offset="85.55555555555554%" stop-color="#eb9f2d" stop-opacity="1"></stop></linearGradient></defs><defs><linearGradient id="grad1_1" x1="43.8%" y1="0%" x2="100%" y2="100%"><stop offset="14.444444444444446%" stop-color="#eb9f2d" stop-opacity="1"></stop><stop offset="85.55555555555554%" stop-color="#e17a41" stop-opacity="1"></stop></linearGradient></defs><defs><linearGradient id="grad1_2" x1="43.8%" y1="0%" x2="100%" y2="100%"><stop offset="14.444444444444446%" stop-color="#c95b50" stop-opacity="1"></stop><stop offset="85.55555555555554%" stop-color="#e17a41" stop-opacity="1"></stop></linearGradient></defs><defs><linearGradient id="grad1_3" x1="43.8%" y1="0%" x2="100%" y2="100%"><stop offset="14.444444444444446%" stop-color="#c95b50" stop-opacity="1"></stop><stop offset="85.55555555555554%" stop-color="#a64659" stop-opacity="1"></stop></linearGradient></defs><defs><linearGradient id="grad1_4" x1="43.8%" y1="0%" x2="100%" y2="100%"><stop offset="14.444444444444446%" stop-color="#7c3858" stop-opacity="1"></stop><stop offset="85.55555555555554%" stop-color="#a64659" stop-opacity="1"></stop></linearGradient></defs><defs><linearGradient id="grad1_5" x1="43.8%" y1="0%" x2="100%" y2="100%"><stop offset="14.444444444444446%" stop-color="#7c3858" stop-opacity="1"></stop><stop offset="85.55555555555554%" stop-color="#512d4c" stop-opacity="1"></stop></linearGradient></defs><defs><linearGradient id="grad1_6" x1="43.8%" y1="0%" x2="100%" y2="100%"><stop offset="14.444444444444446%" stop-color="#2c2136" stop-opacity="1"></stop><stop offset="85.55555555555554%" stop-color="#512d4c" stop-opacity="1"></stop></linearGradient></defs><defs><linearGradient id="grad1_7" x1="43.8%" y1="0%" x2="100%" y2="100%"><stop offset="14.444444444444446%" stop-color="#2c2136" stop-opacity="1"></stop><stop offset="85.55555555555554%" stop-color="#11111b" stop-opacity="1"></stop></linearGradient></defs><defs><linearGradient id="grad2_0" x1="0%" y1="0%" x2="56.3%" y2="100%"><stop offset="14.444444444444446%" stop-color="#eb9f2d" stop-opacity="1"></stop><stop offset="85.55555555555554%" stop-color="#eb9f2d" stop-opacity="1"></stop></linearGradient></defs><defs><linearGradient id="grad2_1" x1="0%" y1="0%" x2="56.3%" y2="100%"><stop offset="14.444444444444446%" stop-color="#e17a41" stop-opacity="1"></stop><stop offset="85.55555555555554%" stop-color="#eb9f2d" stop-opacity="1"></stop></linearGradient></defs><defs><linearGradient id="grad2_2" x1="0%" y1="0%" x2="56.3%" y2="100%"><stop offset="14.444444444444446%" stop-color="#e17a41" stop-opacity="1"></stop><stop offset="85.55555555555554%" stop-color="#c95b50" stop-opacity="1"></stop></linearGradient></defs><defs><linearGradient id="grad2_3" x1="0%" y1="0%" x2="56.3%" y2="100%"><stop offset="14.444444444444446%" stop-color="#a64659" stop-opacity="1"></stop><stop offset="85.55555555555554%" stop-color="#c95b50" stop-opacity="1"></stop></linearGradient></defs><defs><linearGradient id="grad2_4" x1="0%" y1="0%" x2="56.3%" y2="100%"><stop offset="14.444444444444446%" stop-color="#a64659" stop-opacity="1"></stop><stop offset="85.55555555555554%" stop-color="#7c3858" stop-opacity="1"></stop></linearGradient></defs><defs><linearGradient id="grad2_5" x1="0%" y1="0%" x2="56.3%" y2="100%"><stop offset="14.444444444444446%" stop-color="#512d4c" stop-opacity="1"></stop><stop offset="85.55555555555554%" stop-color="#7c3858" stop-opacity="1"></stop></linearGradient></defs><defs><linearGradient id="grad2_6" x1="0%" y1="0%" x2="56.3%" y2="100%"><stop offset="14.444444444444446%" stop-color="#512d4c" stop-opacity="1"></stop><stop offset="85.55555555555554%" stop-color="#2c2136" stop-opacity="1"></stop></linearGradient></defs><defs><linearGradient id="grad2_7" x1="0%" y1="0%" x2="56.3%" y2="100%"><stop offset="14.444444444444446%" stop-color="#11111b" stop-opacity="1"></stop><stop offset="85.55555555555554%" stop-color="#2c2136" stop-opacity="1"></stop></linearGradient></defs><g transform="translate(1920, 0)"><path d="M0 972C-114.5 927.5 -229.1 882.9 -349 842.6C-468.9 802.2 -594.3 766 -687.3 687.3C-780.4 608.6 -841.2 487.5 -883.2 365.8C-925.3 244.2 -948.7 122.1 -972 0L0 0Z" fill="#1d1a29"></path><path d="M0 850.5C-100.2 811.5 -200.4 772.6 -305.4 737.3C-410.3 701.9 -520 670.2 -601.4 601.4C-682.8 532.5 -736 426.5 -772.8 320.1C-809.6 213.7 -830.1 106.8 -850.5 0L0 0Z" fill="#3d2742"></path><path d="M0 729C-85.9 695.6 -171.8 662.2 -261.8 631.9C-351.7 601.7 -445.7 574.5 -515.5 515.5C-585.3 456.5 -630.9 365.6 -662.4 274.4C-694 183.2 -711.5 91.6 -729 0L0 0Z" fill="#663353"></path><path d="M0 607.5C-71.6 579.7 -143.2 551.8 -218.1 526.6C-293.1 501.4 -371.4 478.7 -429.6 429.6C-487.7 380.4 -525.7 304.7 -552 228.7C-578.3 152.6 -592.9 76.3 -607.5 0L0 0Z" fill="#913f59"></path><path d="M0 486C-57.3 463.7 -114.5 441.5 -174.5 421.3C-234.5 401.1 -297.1 383 -343.7 343.7C-390.2 304.3 -420.6 243.7 -441.6 182.9C-462.7 122.1 -474.3 61.1 -486 0L0 0Z" fill="#b94f56"></path><path d="M0 364.5C-43 347.8 -85.9 331.1 -130.9 316C-175.9 300.8 -222.8 287.2 -257.7 257.7C-292.6 228.2 -315.4 182.8 -331.2 137.2C-347 91.6 -355.7 45.8 -364.5 0L0 0Z" fill="#d76949"></path><path d="M0 243C-28.6 231.9 -57.3 220.7 -87.3 210.6C-117.2 200.6 -148.6 191.5 -171.8 171.8C-195.1 152.2 -210.3 121.9 -220.8 91.5C-231.3 61.1 -237.2 30.5 -243 0L0 0Z" fill="#e88c37"></path><path d="M0 121.5C-14.3 115.9 -28.6 110.4 -43.6 105.3C-58.6 100.3 -74.3 95.7 -85.9 85.9C-97.5 76.1 -105.1 60.9 -110.4 45.7C-115.7 30.5 -118.6 15.3 -121.5 0L0 0Z" fill="#eb9f2d"></path></g><g transform="translate(0, 1080)"><path d="M0 -972C126.6 -959.2 253.1 -946.4 372 -898C490.8 -849.7 602 -765.8 661.9 -661.9C721.7 -557.9 730.2 -434 773.3 -320.3C816.4 -206.7 894.2 -103.3 972 0L0 0Z" fill="#1d1a29"></path><path d="M0 -850.5C110.7 -839.3 221.5 -828.1 325.5 -785.8C429.5 -743.5 526.8 -670.1 579.1 -579.1C631.5 -488.2 638.9 -379.7 676.6 -280.3C714.4 -180.8 782.4 -90.4 850.5 0L0 0Z" fill="#3d2742"></path><path d="M0 -729C94.9 -719.4 189.8 -709.8 279 -673.5C368.1 -637.2 451.5 -574.3 496.4 -496.4C541.3 -418.4 547.6 -325.5 580 -240.2C612.3 -155 670.7 -77.5 729 0L0 0Z" fill="#663353"></path><path d="M0 -607.5C79.1 -599.5 158.2 -591.5 232.5 -561.3C306.8 -531 376.3 -478.6 413.7 -413.7C451.1 -348.7 456.3 -271.2 483.3 -200.2C510.3 -129.2 558.9 -64.6 607.5 0L0 0Z" fill="#913f59"></path><path d="M0 -486C63.3 -479.6 126.6 -473.2 186 -449C245.4 -424.8 301 -382.9 330.9 -330.9C360.8 -279 365.1 -217 386.6 -160.2C408.2 -103.3 447.1 -51.7 486 0L0 0Z" fill="#b94f56"></path><path d="M0 -364.5C47.5 -359.7 94.9 -354.9 139.5 -336.8C184.1 -318.6 225.8 -287.2 248.2 -248.2C270.6 -209.2 273.8 -162.7 290 -120.1C306.2 -77.5 335.3 -38.7 364.5 0L0 0Z" fill="#d76949"></path><path d="M0 -243C31.6 -239.8 63.3 -236.6 93 -224.5C122.7 -212.4 150.5 -191.4 165.5 -165.5C180.4 -139.5 182.5 -108.5 193.3 -80.1C204.1 -51.7 223.6 -25.8 243 0L0 0Z" fill="#e88c37"></path><path d="M0 -121.5C15.8 -119.9 31.6 -118.3 46.5 -112.3C61.4 -106.2 75.3 -95.7 82.7 -82.7C90.2 -69.7 91.3 -54.2 96.7 -40C102.1 -25.8 111.8 -12.9 121.5 0L0 0Z" fill="#eb9f2d"></path></g></svg>