<svg id="visual" viewBox="0 0 960 540" width="960" height="540" xmlns="http://www.w3.org/2000/svg" xmlns:xlink="http://www.w3.org/1999/xlink" version="1.1"><rect x="0" y="0" width="960" height="540" fill="#1e1e1e"></rect><defs><linearGradient id="grad1_0" x1="43.8%" y1="0%" x2="100%" y2="100%"><stop offset="14.444444444444446%" stop-color="#383838" stop-opacity="1"></stop><stop offset="85.55555555555554%" stop-color="#383838" stop-opacity="1"></stop></linearGradient></defs><defs><linearGradient id="grad1_1" x1="43.8%" y1="0%" x2="100%" y2="100%"><stop offset="14.444444444444446%" stop-color="#383838" stop-opacity="1"></stop><stop offset="85.55555555555554%" stop-color="#343434" stop-opacity="1"></stop></linearGradient></defs><defs><linearGradient id="grad1_2" x1="43.8%" y1="0%" x2="100%" y2="100%"><stop offset="14.444444444444446%" stop-color="#303030" stop-opacity="1"></stop><stop offset="85.55555555555554%" stop-color="#343434" stop-opacity="1"></stop></linearGradient></defs><defs><linearGradient id="grad1_3" x1="43.8%" y1="0%" x2="100%" y2="100%"><stop offset="14.444444444444446%" stop-color="#303030" stop-opacity="1"></stop><stop offset="85.55555555555554%" stop-color="#2d2d2d" stop-opacity="1"></stop></linearGradient></defs><defs><linearGradient id="grad1_4" x1="43.8%" y1="0%" x2="100%" y2="100%"><stop offset="14.444444444444446%" stop-color="#292929" stop-opacity="1"></stop><stop offset="85.55555555555554%" stop-color="#2d2d2d" stop-opacity="1"></stop></linearGradient></defs><defs><linearGradient id="grad1_5" x1="43.8%" y1="0%" x2="100%" y2="100%"><stop offset="14.444444444444446%" stop-color="#292929" stop-opacity="1"></stop><stop offset="85.55555555555554%" stop-color="#252525" stop-opacity="1"></stop></linearGradient></defs><defs><linearGradient id="grad1_6" x1="43.8%" y1="0%" x2="100%" y2="100%"><stop offset="14.444444444444446%" stop-color="#222222" stop-opacity="1"></stop><stop offset="85.55555555555554%" stop-color="#252525" stop-opacity="1"></stop></linearGradient></defs><defs><linearGradient id="grad1_7" x1="43.8%" y1="0%" x2="100%" y2="100%"><stop offset="14.444444444444446%" stop-color="#222222" stop-opacity="1"></stop><stop offset="85.55555555555554%" stop-color="#1e1e1e" stop-opacity="1"></stop></linearGradient></defs><defs><linearGradient id="grad2_0" x1="0%" y1="0%" x2="56.3%" y2="100%"><stop offset="14.444444444444446%" stop-color="#383838" stop-opacity="1"></stop><stop offset="85.55555555555554%" stop-color="#383838" stop-opacity="1"></stop></linearGradient></defs><defs><linearGradient id="grad2_1" x1="0%" y1="0%" x2="56.3%" y2="100%"><stop offset="14.444444444444446%" stop-color="#343434" stop-opacity="1"></stop><stop offset="85.55555555555554%" stop-color="#383838" stop-opacity="1"></stop></linearGradient></defs><defs><linearGradient id="grad2_2" x1="0%" y1="0%" x2="56.3%" y2="100%"><stop offset="14.444444444444446%" stop-color="#343434" stop-opacity="1"></stop><stop offset="85.55555555555554%" stop-color="#303030" stop-opacity="1"></stop></linearGradient></defs><defs><linearGradient id="grad2_3" x1="0%" y1="0%" x2="56.3%" y2="100%"><stop offset="14.444444444444446%" stop-color="#2d2d2d" stop-opacity="1"></stop><stop offset="85.55555555555554%" stop-color="#303030" stop-opacity="1"></stop></linearGradient></defs><defs><linearGradient id="grad2_4" x1="0%" y1="0%" x2="56.3%" y2="100%"><stop offset="14.444444444444446%" stop-color="#2d2d2d" stop-opacity="1"></stop><stop offset="85.55555555555554%" stop-color="#292929" stop-opacity="1"></stop></linearGradient></defs><defs><linearGradient id="grad2_5" x1="0%" y1="0%" x2="56.3%" y2="100%"><stop offset="14.444444444444446%" stop-color="#252525" stop-opacity="1"></stop><stop offset="85.55555555555554%" stop-color="#292929" stop-opacity="1"></stop></linearGradient></defs><defs><linearGradient id="grad2_6" x1="0%" y1="0%" x2="56.3%" y2="100%"><stop offset="14.444444444444446%" stop-color="#252525" stop-opacity="1"></stop><stop offset="85.55555555555554%" stop-color="#222222" stop-opacity="1"></stop></linearGradient></defs><defs><linearGradient id="grad2_7" x1="0%" y1="0%" x2="56.3%" y2="100%"><stop offset="14.444444444444446%" stop-color="#1e1e1e" stop-opacity="1"></stop><stop offset="85.55555555555554%" stop-color="#222222" stop-opacity="1"></stop></linearGradient></defs><g transform="translate(960, 0)"><path d="M0 486C-52.9 484.1 -105.7 482.2 -150.2 462.2C-194.7 442.2 -230.8 404.1 -269.2 370.5C-307.6 337 -348.4 308 -369.7 268.6C-391 229.2 -392.8 179.4 -409 132.9C-425.1 86.4 -455.5 43.2 -486 0L0 0Z" fill="#202020"></path><path d="M0 425.3C-46.2 423.6 -92.5 421.9 -131.4 404.4C-170.3 386.9 -201.9 353.6 -235.6 324.2C-269.2 294.9 -304.9 269.5 -323.5 235C-342.1 200.6 -343.7 157 -357.8 116.3C-372 75.6 -398.6 37.8 -425.2 0L0 0Z" fill="#232323"></path><path d="M0 364.5C-39.6 363.1 -79.3 361.7 -112.6 346.7C-146 331.7 -173.1 303.1 -201.9 277.9C-230.7 252.7 -261.3 231 -277.3 201.5C-293.3 171.9 -294.6 134.5 -306.7 99.7C-318.8 64.8 -341.7 32.4 -364.5 0L0 0Z" fill="#272727"></path><path d="M0 303.8C-33 302.6 -66.1 301.4 -93.9 288.9C-121.7 276.4 -144.2 252.5 -168.3 231.6C-192.3 210.6 -217.8 192.5 -231.1 167.9C-244.4 143.3 -245.5 112.1 -255.6 83C-265.7 54 -284.7 27 -303.7 0L0 0Z" fill="#2b2b2b"></path><path d="M0 243C-26.4 242.1 -52.9 241.1 -75.1 231.1C-97.3 221.1 -115.4 202 -134.6 185.3C-153.8 168.5 -174.2 154 -184.9 134.3C-195.5 114.6 -196.4 89.7 -204.5 66.4C-212.5 43.2 -227.8 21.6 -243 0L0 0Z" fill="#2e2e2e"></path><path d="M0 182.3C-19.8 181.5 -39.6 180.8 -56.3 173.3C-73 165.8 -86.5 151.5 -101 138.9C-115.4 126.4 -130.7 115.5 -138.6 100.7C-146.6 86 -147.3 67.3 -153.4 49.8C-159.4 32.4 -170.8 16.2 -182.2 0L0 0Z" fill="#323232"></path><path d="M0 121.5C-13.2 121 -26.4 120.6 -37.5 115.6C-48.7 110.6 -57.7 101 -67.3 92.6C-76.9 84.2 -87.1 77 -92.4 67.2C-97.8 57.3 -98.2 44.8 -102.2 33.2C-106.3 21.6 -113.9 10.8 -121.5 0L0 0Z" fill="#363636"></path><path d="M0 60.8C-6.6 60.5 -13.2 60.3 -18.8 57.8C-24.3 55.3 -28.8 50.5 -33.7 46.3C-38.5 42.1 -43.6 38.5 -46.2 33.6C-48.9 28.7 -49.1 22.4 -51.1 16.6C-53.1 10.8 -56.9 5.4 -60.7 0L0 0Z" fill="#383838"></path></g><g transform="translate(0, 540)"><path d="M0 -486C45.3 -449.8 90.7 -413.5 124.2 -382.3C157.8 -351.1 179.6 -324.9 229.2 -315.5C278.9 -306.1 356.4 -313.5 393.2 -285.7C429.9 -257.8 426 -194.7 434.6 -141.2C443.3 -87.7 464.7 -43.9 486 0L0 0Z" fill="#202020"></path><path d="M0 -425.2C39.7 -393.5 79.3 -361.8 108.7 -334.5C138.1 -307.2 157.1 -284.3 200.6 -276.1C244 -267.9 311.9 -274.3 344 -250C376.2 -225.6 372.7 -170.4 380.3 -123.6C387.9 -76.8 406.6 -38.4 425.3 0L0 0Z" fill="#232323"></path><path d="M0 -364.5C34 -337.3 68 -310.2 93.2 -286.7C118.3 -263.3 134.7 -243.7 171.9 -236.6C209.2 -229.6 267.3 -235.1 294.9 -214.2C322.5 -193.4 319.5 -146 326 -105.9C332.5 -65.8 348.5 -32.9 364.5 0L0 0Z" fill="#272727"></path><path d="M0 -303.7C28.3 -281.1 56.7 -258.5 77.6 -239C98.6 -219.4 112.2 -203.1 143.3 -197.2C174.3 -191.3 222.8 -195.9 245.7 -178.5C268.7 -161.1 266.2 -121.7 271.6 -88.3C277.1 -54.8 290.4 -27.4 303.8 0L0 0Z" fill="#2b2b2b"></path><path d="M0 -243C22.7 -224.9 45.3 -206.8 62.1 -191.2C78.9 -175.6 89.8 -162.5 114.6 -157.8C139.4 -153.1 178.2 -156.8 196.6 -142.8C215 -128.9 213 -97.4 217.3 -70.6C221.7 -43.9 232.3 -21.9 243 0L0 0Z" fill="#2e2e2e"></path><path d="M0 -182.2C17 -168.7 34 -155.1 46.6 -143.4C59.2 -131.7 67.3 -121.8 86 -118.3C104.6 -114.8 133.7 -117.6 147.4 -107.1C161.2 -96.7 159.7 -73 163 -53C166.2 -32.9 174.2 -16.5 182.3 0L0 0Z" fill="#323232"></path><path d="M0 -121.5C11.3 -112.4 22.7 -103.4 31.1 -95.6C39.4 -87.8 44.9 -81.2 57.3 -78.9C69.7 -76.5 89.1 -78.4 98.3 -71.4C107.5 -64.5 106.5 -48.7 108.7 -35.3C110.8 -21.9 116.2 -11 121.5 0L0 0Z" fill="#363636"></path><path d="M0 -60.7C5.7 -56.2 11.3 -51.7 15.5 -47.8C19.7 -43.9 22.4 -40.6 28.7 -39.4C34.9 -38.3 44.6 -39.2 49.1 -35.7C53.7 -32.2 53.2 -24.3 54.3 -17.7C55.4 -11 58.1 -5.5 60.8 0L0 0Z" fill="#383838"></path></g></svg>