<svg id="visual" viewBox="0 0 960 540" width="960" height="540" xmlns="http://www.w3.org/2000/svg" xmlns:xlink="http://www.w3.org/1999/xlink" version="1.1"><rect x="0" y="0" width="960" height="540" fill="#212121"></rect><defs><linearGradient id="grad1_0" x1="43.8%" y1="0%" x2="100%" y2="100%"><stop offset="14.444444444444446%" stop-color="#b67233" stop-opacity="1"></stop><stop offset="85.55555555555554%" stop-color="#b67233" stop-opacity="1"></stop></linearGradient></defs><defs><linearGradient id="grad1_1" x1="43.8%" y1="0%" x2="100%" y2="100%"><stop offset="14.444444444444446%" stop-color="#b67233" stop-opacity="1"></stop><stop offset="85.55555555555554%" stop-color="#9f6631" stop-opacity="1"></stop></linearGradient></defs><defs><linearGradient id="grad1_2" x1="43.8%" y1="0%" x2="100%" y2="100%"><stop offset="14.444444444444446%" stop-color="#89592f" stop-opacity="1"></stop><stop offset="85.55555555555554%" stop-color="#9f6631" stop-opacity="1"></stop></linearGradient></defs><defs><linearGradient id="grad1_3" x1="43.8%" y1="0%" x2="100%" y2="100%"><stop offset="14.444444444444446%" stop-color="#89592f" stop-opacity="1"></stop><stop offset="85.55555555555554%" stop-color="#734e2d" stop-opacity="1"></stop></linearGradient></defs><defs><linearGradient id="grad1_4" x1="43.8%" y1="0%" x2="100%" y2="100%"><stop offset="14.444444444444446%" stop-color="#5e422a" stop-opacity="1"></stop><stop offset="85.55555555555554%" stop-color="#734e2d" stop-opacity="1"></stop></linearGradient></defs><defs><linearGradient id="grad1_5" x1="43.8%" y1="0%" x2="100%" y2="100%"><stop offset="14.444444444444446%" stop-color="#5e422a" stop-opacity="1"></stop><stop offset="85.55555555555554%" stop-color="#4a3727" stop-opacity="1"></stop></linearGradient></defs><defs><linearGradient id="grad1_6" x1="43.8%" y1="0%" x2="100%" y2="100%"><stop offset="14.444444444444446%" stop-color="#352c24" stop-opacity="1"></stop><stop offset="85.55555555555554%" stop-color="#4a3727" stop-opacity="1"></stop></linearGradient></defs><defs><linearGradient id="grad1_7" x1="43.8%" y1="0%" x2="100%" y2="100%"><stop offset="14.444444444444446%" stop-color="#352c24" stop-opacity="1"></stop><stop offset="85.55555555555554%" stop-color="#212121" stop-opacity="1"></stop></linearGradient></defs><defs><linearGradient id="grad2_0" x1="0%" y1="0%" x2="56.3%" y2="100%"><stop offset="14.444444444444446%" stop-color="#b67233" stop-opacity="1"></stop><stop offset="85.55555555555554%" stop-color="#b67233" stop-opacity="1"></stop></linearGradient></defs><defs><linearGradient id="grad2_1" x1="0%" y1="0%" x2="56.3%" y2="100%"><stop offset="14.444444444444446%" stop-color="#9f6631" stop-opacity="1"></stop><stop offset="85.55555555555554%" stop-color="#b67233" stop-opacity="1"></stop></linearGradient></defs><defs><linearGradient id="grad2_2" x1="0%" y1="0%" x2="56.3%" y2="100%"><stop offset="14.444444444444446%" stop-color="#9f6631" stop-opacity="1"></stop><stop offset="85.55555555555554%" stop-color="#89592f" stop-opacity="1"></stop></linearGradient></defs><defs><linearGradient id="grad2_3" x1="0%" y1="0%" x2="56.3%" y2="100%"><stop offset="14.444444444444446%" stop-color="#734e2d" stop-opacity="1"></stop><stop offset="85.55555555555554%" stop-color="#89592f" stop-opacity="1"></stop></linearGradient></defs><defs><linearGradient id="grad2_4" x1="0%" y1="0%" x2="56.3%" y2="100%"><stop offset="14.444444444444446%" stop-color="#734e2d" stop-opacity="1"></stop><stop offset="85.55555555555554%" stop-color="#5e422a" stop-opacity="1"></stop></linearGradient></defs><defs><linearGradient id="grad2_5" x1="0%" y1="0%" x2="56.3%" y2="100%"><stop offset="14.444444444444446%" stop-color="#4a3727" stop-opacity="1"></stop><stop offset="85.55555555555554%" stop-color="#5e422a" stop-opacity="1"></stop></linearGradient></defs><defs><linearGradient id="grad2_6" x1="0%" y1="0%" x2="56.3%" y2="100%"><stop offset="14.444444444444446%" stop-color="#4a3727" stop-opacity="1"></stop><stop offset="85.55555555555554%" stop-color="#352c24" stop-opacity="1"></stop></linearGradient></defs><defs><linearGradient id="grad2_7" x1="0%" y1="0%" x2="56.3%" y2="100%"><stop offset="14.444444444444446%" stop-color="#212121" stop-opacity="1"></stop><stop offset="85.55555555555554%" stop-color="#352c24" stop-opacity="1"></stop></linearGradient></defs><g transform="translate(960, 0)"><path d="M0 486C-51.6 483.8 -103.3 481.5 -150.2 462.2C-197.1 442.9 -239.2 406.4 -263.3 362.4C-287.5 318.4 -293.6 266.9 -315.5 229.2C-337.4 191.6 -375.1 167.8 -406.1 132C-437.1 96.1 -461.6 48 -486 0L0 0Z" fill="#2b2623"></path><path d="M0 425.3C-45.2 423.3 -90.4 421.4 -131.4 404.4C-172.4 387.5 -209.3 355.6 -230.4 317.1C-251.5 278.6 -256.9 233.5 -276.1 200.6C-295.2 167.6 -328.2 146.9 -355.3 115.5C-382.5 84.1 -403.9 42 -425.2 0L0 0Z" fill="#3f3126"></path><path d="M0 364.5C-38.7 362.8 -77.5 361.2 -112.6 346.7C-147.8 332.2 -179.4 304.8 -197.5 271.8C-215.6 238.8 -220.2 200.2 -236.6 171.9C-253.1 143.7 -281.3 125.9 -304.6 99C-327.9 72 -346.2 36 -364.5 0L0 0Z" fill="#543c29"></path><path d="M0 303.8C-32.3 302.4 -64.6 301 -93.9 288.9C-123.2 276.8 -149.5 254 -164.6 226.5C-179.7 199 -183.5 166.8 -197.2 143.3C-210.9 119.7 -234.4 104.9 -253.8 82.5C-273.2 60 -288.5 30 -303.7 0L0 0Z" fill="#69482c"></path><path d="M0 243C-25.8 241.9 -51.6 240.8 -75.1 231.1C-98.5 221.4 -119.6 203.2 -131.7 181.2C-143.7 159.2 -146.8 133.4 -157.8 114.6C-168.7 95.8 -187.5 83.9 -203.1 66C-218.6 48 -230.8 24 -243 0L0 0Z" fill="#7e532e"></path><path d="M0 182.3C-19.4 181.4 -38.7 180.6 -56.3 173.3C-73.9 166.1 -89.7 152.4 -98.7 135.9C-107.8 119.4 -110.1 100.1 -118.3 86C-126.5 71.8 -140.6 62.9 -152.3 49.5C-163.9 36 -173.1 18 -182.2 0L0 0Z" fill="#946030"></path><path d="M0 121.5C-12.9 120.9 -25.8 120.4 -37.5 115.6C-49.3 110.7 -59.8 101.6 -65.8 90.6C-71.9 79.6 -73.4 66.7 -78.9 57.3C-84.4 47.9 -93.8 42 -101.5 33C-109.3 24 -115.4 12 -121.5 0L0 0Z" fill="#ab6c32"></path><path d="M0 60.8C-6.5 60.5 -12.9 60.2 -18.8 57.8C-24.6 55.4 -29.9 50.8 -32.9 45.3C-35.9 39.8 -36.7 33.4 -39.4 28.7C-42.2 23.9 -46.9 21 -50.8 16.5C-54.6 12 -57.7 6 -60.7 0L0 0Z" fill="#b67233"></path></g><g transform="translate(0, 540)"><path d="M0 -486C51.4 -479.5 102.7 -473 146.8 -451.8C190.8 -430.5 227.6 -394.5 263.3 -362.4C299.1 -330.4 333.8 -302.2 369.7 -268.6C405.6 -235 442.6 -195.9 462.2 -150.2C481.8 -104.5 483.9 -52.2 486 0L0 0Z" fill="#2b2623"></path><path d="M0 -425.2C44.9 -419.6 89.9 -413.9 128.4 -395.3C167 -376.7 199.1 -345.2 230.4 -317.1C261.7 -289.1 292.1 -264.5 323.5 -235C354.9 -205.6 387.3 -171.4 404.4 -131.4C421.6 -91.4 423.4 -45.7 425.3 0L0 0Z" fill="#3f3126"></path><path d="M0 -364.5C38.5 -359.6 77 -354.8 110.1 -338.8C143.1 -322.9 170.7 -295.9 197.5 -271.8C224.3 -247.8 250.4 -226.7 277.3 -201.5C304.2 -176.2 332 -146.9 346.7 -112.6C361.3 -78.4 362.9 -39.2 364.5 0L0 0Z" fill="#543c29"></path><path d="M0 -303.7C32.1 -299.7 64.2 -295.6 91.7 -282.3C119.3 -269.1 142.2 -246.6 164.6 -226.5C186.9 -206.5 208.6 -188.9 231.1 -167.9C253.5 -146.9 276.7 -122.4 288.9 -93.9C301.1 -65.3 302.4 -32.7 303.8 0L0 0Z" fill="#69482c"></path><path d="M0 -243C25.7 -239.8 51.4 -236.5 73.4 -225.9C95.4 -215.3 113.8 -197.3 131.7 -181.2C149.5 -165.2 166.9 -151.1 184.9 -134.3C202.8 -117.5 221.3 -97.9 231.1 -75.1C240.9 -52.2 241.9 -26.1 243 0L0 0Z" fill="#7e532e"></path><path d="M0 -182.2C19.3 -179.8 38.5 -177.4 55 -169.4C71.6 -161.4 85.3 -147.9 98.7 -135.9C112.2 -123.9 125.2 -113.3 138.6 -100.7C152.1 -88.1 166 -73.5 173.3 -56.3C180.7 -39.2 181.5 -19.6 182.3 0L0 0Z" fill="#946030"></path><path d="M0 -121.5C12.8 -119.9 25.7 -118.3 36.7 -112.9C47.7 -107.6 56.9 -98.6 65.8 -90.6C74.8 -82.6 83.5 -75.6 92.4 -67.2C101.4 -58.7 110.7 -49 115.6 -37.5C120.4 -26.1 121 -13.1 121.5 0L0 0Z" fill="#ab6c32"></path><path d="M0 -60.7C6.4 -59.9 12.8 -59.1 18.3 -56.5C23.9 -53.8 28.4 -49.3 32.9 -45.3C37.4 -41.3 41.7 -37.8 46.2 -33.6C50.7 -29.4 55.3 -24.5 57.8 -18.8C60.2 -13.1 60.5 -6.5 60.8 0L0 0Z" fill="#b67233"></path></g></svg>