<?xml version="1.0" encoding="UTF-8"?>
<svg id="Layer_1" data-name="Layer 1" xmlns="http://www.w3.org/2000/svg" xmlns:xlink="http://www.w3.org/1999/xlink" viewBox="0 0 662.07 237.36">
  <defs>
    <style>
      .cls-1, .cls-2 {
        fill: #e88c38;
      }

      .cls-3 {
        fill: #b94f56;
      }

      .cls-4 {
        fill: #d76949;
      }

      .cls-5 {
        filter: url(#drop-shadow-1);
      }

      .cls-2 {
        stroke: #dbdbdb;
        stroke-miterlimit: 10;
        stroke-width: 8px;
      }
    </style>
    <filter id="drop-shadow-1" filterUnits="userSpaceOnUse">
      <feOffset dx="0" dy="4"/>
      <feGaussianBlur result="blur" stdDeviation="10"/>
      <feFlood flood-color="#000" flood-opacity=".3"/>
      <feComposite in2="blur" operator="in"/>
      <feComposite in="SourceGraphic"/>
    </filter>
  </defs>
  <g class="cls-5">
    <line class="cls-2" x1="6.88" y1="192.4" x2="49.13" y2="192.4"/>
    <g>
      <path class="cls-1" d="m25.15,120.29h21.83v11.86h.68c2.66-6.36,8.66-12.76,19.62-12.76,14.48,0,27.56,11.14,27.56,35.59s-12.36,35.59-27.69,35.59c-10.46,0-16.69-5.82-19.49-12.22h-.45v37.21h-22.06v-95.26Zm34.37,53.09c8.16,0,12.67-7.26,12.67-18.45s-4.51-18.31-12.67-18.31-12.76,6.99-12.76,18.31,4.69,18.45,12.76,18.45Z"/>
      <path class="cls-1" d="m98.68,155.2c0-21.47,13.44-35.81,34.37-35.81,19.67,0,33.56,12.54,33.56,35.36v5.5h-46.19v.59c0,8.48,5.23,14.12,13.71,14.12,5.77,0,10.28-2.48,12-7.08l20.25.59c-2.53,13.62-14.48,22.42-32.66,22.42-21.79,0-35.05-13.49-35.05-35.68Zm47.41-7.76c-.09-7.08-5.32-12.13-12.58-12.13s-12.76,5.23-13.08,12.13h25.67Z"/>
      <path class="cls-1" d="m211.94,136.53h-12.49v31.26c0,4.1,2.03,5.55,5.59,5.55,1.67,0,3.88-.45,4.83-.68l3.34,15.92c-2.12.63-5.95,1.71-11.28,1.98-15.56.72-24.67-6.31-24.54-20.34v-33.69h-9.16v-16.24h9.16v-16.6h22.06v16.6h12.49v16.24Z"/>
      <path class="cls-1" d="m214.74,155.2c0-21.47,13.44-35.81,34.37-35.81,19.67,0,33.56,12.54,33.56,35.36v5.5h-46.19v.59c0,8.48,5.23,14.12,13.71,14.12,5.77,0,10.28-2.48,12-7.08l20.25.59c-2.53,13.62-14.48,22.42-32.66,22.42-21.79,0-35.05-13.49-35.05-35.68Zm47.41-7.76c-.09-7.08-5.32-12.13-12.58-12.13s-12.76,5.23-13.08,12.13h25.67Z"/>
      <path class="cls-1" d="m288.9,120.29h21.42v12.63h.72c2.53-9.16,8.57-13.58,16.15-13.58,2.03,0,4.33.32,6.18.81v19.17c-2.12-.72-6.04-1.17-8.66-1.17-7.89,0-13.76,5.55-13.76,13.8v37.62h-22.06v-69.28Z"/>
    </g>
    <g>
      <path class="cls-4" d="m243.96,9.56l21.34,5.59-12.14,46.34.96.25,25.13-19.06,24.17,6.33-31.42,22.96,14.83,44.31-24.65-6.46-9.33-29.53-5.69,4.1-5.27,20.12-21.34-5.59,23.4-89.36Z"/>
      <path class="cls-4" d="m309.96,122.34l-21.34-5.59,17.55-67.02,20.29,5.31-3.22,12.3.74.19c5.1-7.38,13.92-10.43,23.83-7.84,14.09,3.69,20.66,16.18,16.66,31.27l-11.19,42.72-21.34-5.59,10.09-38.53c1.99-7.41-.86-12.91-7.63-14.68-6.76-1.77-12.4,1.6-14.45,9.23l-10.01,38.22Z"/>
      <path class="cls-4" d="m379.18,68.85l21.34,5.59-17.55,67.02-21.34-5.59,17.55-67.02Zm4.46-18.09c1.47-5.63,7.59-8.88,13.61-7.3,6.07,1.59,9.76,7.41,8.29,13.04-1.47,5.63-7.56,8.93-13.63,7.34-6.02-1.58-9.75-7.45-8.28-13.08Z"/>
      <path class="cls-4" d="m389.49,149.69l20.5,4.16c.05,4.44,3.46,8.13,10.31,9.93,7.16,1.87,13.2.15,15.44-8.4l3.08-11.78-.74-.19c-4.15,5.53-11.94,8.39-21.8,5.81-14.7-3.85-24.2-16.92-18.23-39.7,6.16-23.52,21.68-30.97,35.69-27.3,10.56,2.77,14.78,10.49,15.75,17.32l.61.16,3-11.48,21.25,5.57-17.62,67.28c-4.47,17.06-20.67,22.66-40.87,17.37-19.11-5-27.88-16.58-26.37-28.73Zm55.12-27.99c2.84-10.87.08-18.82-7.73-20.86-7.94-2.08-14.12,3.71-16.92,14.41-2.81,10.73-.08,18.3,7.81,20.37,7.77,2.03,14.02-3.14,16.84-13.91Z"/>
      <path class="cls-4" d="m486.78,168.64l-21.34-5.59,23.4-89.36,20.64,5.41-9.07,34.64.74.19c5.17-7.46,13.53-10.54,23.57-7.91,14.09,3.69,20.73,16.11,16.71,31.28l-11.19,42.72-21.34-5.59,10.09-38.53c2-7.45-.82-12.9-7.67-14.69-6.76-1.77-12.49,1.58-14.53,9.2l-10.01,38.22Z"/>
      <path class="cls-4" d="m589.85,140.8l-12.09-3.17-7.92,30.24c-1.04,3.97.56,5.88,4,6.78,1.62.42,3.87.55,4.84.57l-.8,16.25c-2.21.07-6.19.15-11.41-.94-15.24-3.24-22.27-12.36-18.58-25.89l8.54-32.59-8.86-2.32,4.11-15.71,8.86,2.32,4.21-16.06,21.34,5.59-4.21,16.06,12.09,3.17-4.11,15.71Z"/>
    </g>
    <g>
      <path class="cls-3" d="m574.28,165.19c1.64-1.98,4.62-2.19,6.6-.5,1.89,1.61,2.21,4.61.57,6.6-1.72,1.96-4.75,2.15-6.64.54-1.99-1.69-2.25-4.67-.54-6.64Z"/>
      <path class="cls-3" d="m590.19,166.07c5.56-6.54,13.35-7.51,20.01-1.84,6.67,5.67,6.97,13.5,1.41,20.05-5.55,6.53-13.33,7.49-20,1.83-6.67-5.67-6.97-13.51-1.42-20.03Zm14.58,12.32c2.99-3.52,3.64-7.08,1.23-9.13-2.5-2.12-5.91-.91-8.9,2.61-2.98,3.5-3.62,7.05-1.12,9.17,2.42,2.05,5.81.85,8.79-2.65Z"/>
      <path class="cls-3" d="m622.97,175.55l6.56,5.57-3.29,3.86.22.19c3.15-2.14,6.15-1.92,8.47.05.62.53,1.24,1.22,1.68,1.86l-4.99,5.87c-.46-.77-1.54-1.93-2.35-2.61-2.41-2.05-5.65-1.88-7.8.65l-9.78,11.51-6.75-5.74,18.02-21.2Z"/>
      <path class="cls-3" d="m617.25,210.54l6.7,5.07c-.76,1.62-.16,3.55,2,5.39,2.26,1.92,4.75,2.35,7.05-.35l3.17-3.73-.23-.2c-2.47,1.28-5.78.96-8.9-1.69-4.65-3.95-5.81-10.33.31-17.54,6.32-7.44,13.24-7.43,17.66-3.67,3.34,2.84,3.52,6.37,2.68,9.01l.19.16,3.09-3.63,6.72,5.71-18.09,21.28c-4.59,5.4-11.42,4.6-17.81-.83-6.04-5.14-7.2-10.85-4.54-14.99Zm24.82-.54c2.92-3.44,3.3-6.79.83-8.89-2.51-2.13-5.76-1.11-8.63,2.27-2.89,3.39-3.22,6.61-.72,8.73,2.46,2.09,5.62,1.3,8.52-2.11Z"/>
    </g>
    <line class="cls-2" x1="49.13" y1="192.4" x2="586.19" y2="192.4"/>
  </g>
</svg>