<?xml version="1.0" encoding="UTF-8"?>
<svg id="Layer_1" data-name="Layer 1" xmlns="http://www.w3.org/2000/svg" viewBox="0 0 480 480">
  <defs>
    <style>
      .cls-1 {
        fill: #fff;
      }
    </style>
  </defs>
  <rect width="480" height="480" rx="117.15" ry="117.15"/>
  <path class="cls-1" d="M155.28,102.04l-8.82,8.82c-7.96,7.96-12.4,18.7-12.4,29.97v87.79c0,7.09,3.51,13.73,9.42,17.64l7.03,4.64c9.48,6.37,21.68,7.09,31.89,1.99l2.12-1.06c1.72-.86,3.32-1.86,4.84-2.98l32.76-24.53c4.38-3.32,10.41-3.32,14.79,0,6.76,5.11,6.56,15.32-.46,20.09l-84.87,57.89c-10.94,7.49-17.5,19.89-17.5,33.15h212.18l19.16-105.43c1.39-7.49,2.06-15.12,2.06-22.74v-9.75c0-70.28-57.02-127.31-127.31-127.31h-92.96c-7.23,0-13.13,5.9-13.13,13.13,0,4.97,2.78,9.48,7.23,11.74l13.99,6.96ZM171.19,147.12c0-7.32,5.94-13.26,13.26-13.26s13.26,5.94,13.26,13.26-5.94,13.26-13.26,13.26-13.26-5.94-13.26-13.26M106.61,384.1c-2.78,2.78-4.38,6.63-4.38,10.61,0,8.29,6.7,14.99,14.99,14.99h245.8c8.29,0,14.99-6.7,14.99-14.99,0-3.98-1.59-7.82-4.38-10.61l-27.38-27.45h-212.18l-27.45,27.45Z"/>
</svg>