<?xml version="1.0" encoding="UTF-8"?>
<svg xmlns="http://www.w3.org/2000/svg" viewBox="0 0 144 144">
  <g id="Misc">
    <rect width="144" height="144"/>
  </g>
  <g id="Favicons">
    <g>
      <g>
        <path d="M25.38,114.33v-62.25h10.66l1.38,5.85c.86-1.2,1.92-2.34,3.18-3.4,1.26-1.06,2.75-1.91,4.47-2.54,1.72-.63,3.73-.95,6.02-.95,4.07,0,7.67.99,10.79,2.97,3.12,1.98,5.59,4.69,7.39,8.13s2.71,7.34,2.71,11.69-.92,8.24-2.75,11.65c-1.84,3.41-4.3,6.09-7.39,8.04s-6.62,2.92-10.58,2.92c-3.21,0-5.95-.57-8.21-1.72-2.27-1.15-4.14-2.75-5.63-4.81v24.42h-12.04ZM48.33,85.95c2.18,0,4.13-.52,5.85-1.55s3.05-2.45,4-4.26,1.42-3.88,1.42-6.23-.47-4.63-1.42-6.49c-.95-1.86-2.28-3.31-4-4.34-1.72-1.03-3.67-1.55-5.85-1.55s-4.13.52-5.85,1.55c-1.72,1.03-3.05,2.47-4,4.3-.95,1.84-1.42,3.98-1.42,6.45s.47,4.44,1.42,6.28c.95,1.84,2.28,3.27,4,4.3s3.67,1.55,5.85,1.55Z" style="fill: #fff;"/>
        <path d="M77.65,95.41v-61.91h12.04v61.91h-12.04ZM106.2,95.41l-18.23-23.73,16.25-19.6h14.27l-21.41,24.68v-9.63l23.99,28.29h-14.88Z" style="fill: #fff;"/>
      </g>
      <rect x="25.38" y="33.5" width="58.3" height="12" style="fill: #fff;"/>
    </g>
  </g>
</svg>