<?xml version="1.0" encoding="UTF-8"?>
<svg id="Favicons" xmlns="http://www.w3.org/2000/svg" viewBox="0 0 144 144">
  <rect width="144" height="144" rx="25" ry="25"/>
  <g>
    <g>
      <path d="M25.34,119.07V49.22h11.96l1.54,6.56c.96-1.35,2.15-2.62,3.57-3.81,1.41-1.19,3.09-2.14,5.02-2.85,1.93-.71,4.18-1.06,6.75-1.06,4.57,0,8.6,1.11,12.11,3.33,3.51,2.22,6.27,5.26,8.3,9.12,2.03,3.86,3.04,8.23,3.04,13.12s-1.03,9.25-3.09,13.07c-2.06,3.83-4.82,6.84-8.3,9.02s-7.43,3.28-11.87,3.28c-3.6,0-6.67-.64-9.21-1.93-2.54-1.29-4.65-3.09-6.32-5.4v27.4h-13.51ZM51.11,87.23c2.44,0,4.63-.58,6.56-1.74s3.43-2.75,4.49-4.78c1.06-2.03,1.59-4.36,1.59-7s-.53-5.19-1.59-7.28c-1.06-2.09-2.56-3.71-4.49-4.87-1.93-1.16-4.12-1.74-6.56-1.74s-4.63.58-6.56,1.74c-1.93,1.16-3.43,2.77-4.49,4.82-1.06,2.06-1.59,4.47-1.59,7.24s.53,4.99,1.59,7.04c1.06,2.06,2.56,3.67,4.49,4.82s4.12,1.74,6.56,1.74Z" style="fill: #fff;"/>
      <path d="M84.01,97.84V28.37h13.51v69.47h-13.51ZM116.04,97.84l-20.46-26.63,18.24-22h16.02l-24.03,27.69v-10.81l26.92,31.74h-16.69Z" style="fill: #fff;"/>
    </g>
    <rect x="25.34" y="28.37" width="65.42" height="13.47" style="fill: #fff;"/>
  </g>
</svg>