<?xml version="1.0" encoding="UTF-8"?>
<svg id="Logos" xmlns="http://www.w3.org/2000/svg" viewBox="0 0 500 425">
  <g>
    <path d="M0,423.64V98.39h55.71l7.19,30.55c4.49-6.29,10.03-12.2,16.62-17.75,6.58-5.54,14.38-9.95,23.36-13.25,8.98-3.29,19.46-4.94,31.45-4.94,21.26,0,40.05,5.17,56.38,15.5,16.32,10.33,29.2,24.48,38.63,42.45s14.15,38.34,14.15,61.1-4.79,43.06-14.38,60.87c-9.59,17.82-22.46,31.83-38.63,42-16.17,10.18-34.59,15.27-55.26,15.27-16.78,0-31.07-3-42.9-8.98-11.83-5.99-21.64-14.38-29.43-25.16v127.58H0ZM119.95,275.39c11.38,0,21.56-2.7,30.55-8.09,8.98-5.39,15.95-12.8,20.89-22.24,4.94-9.43,7.41-20.29,7.41-32.57s-2.47-24.18-7.41-33.92c-4.94-9.73-11.9-17.3-20.89-22.69-8.98-5.39-19.17-8.09-30.55-8.09s-21.56,2.7-30.55,8.09c-8.98,5.39-15.95,12.88-20.89,22.46-4.94,9.59-7.41,20.82-7.41,33.69s2.47,23.21,7.41,32.79c4.94,9.59,11.9,17.07,20.89,22.46,8.98,5.39,19.16,8.09,30.55,8.09Z"/>
    <path d="M273.13,324.81V1.36h62.89v323.45h-62.89ZM422.28,324.81l-95.24-123.99,84.91-102.43h74.57l-111.86,128.93v-50.32l125.34,147.8h-77.72Z"/>
  </g>
  <rect y="1.36" width="304.58" height="62.71"/>
</svg>